<svg version="1.2" xmlns="http://www.w3.org/2000/svg" viewBox="0 0 2000 2000" width="512" height="512">
	<title>Hlambda Logo</title>
	<style>
		.s0 { fill: #539e43 } 
	</style>
	<g id="Logo">
        <path id="Circle" fill-rule="evenodd" class="s0" d="m1006.8 28.6c38.2 1.7 51.5 6.2 104.3 35.8 33.4 18.7 107 61.1 163.6 94.2 89.5 52.4 105 59.4 117.8 53 8.2-4 37.6-41.3 65.4-82.7 32.7-48.9 54.6-75.3 62.2-75.2 6.5 0.2 19.1 10.1 28 22.2 8.9 12 20.6 32.4 25.9 45.4 5.4 13 14.6 44.8 20.5 70.7 5.9 25.9 12.6 72.9 19.4 161.6l68.4 39.8c37.6 22 84.8 50.7 104.8 64 24.3 16.1 42.7 35.3 74.6 91.4l0.2 447.7c0.2 386-1.2 451.2-10 473-5.7 13.9-20.6 35.1-33.3 47.1-12.6 12-186.8 116.6-387.1 232.3-273.1 157.7-373 212.2-399.5 217.7-26.2 5.5-43.1 5.4-65.6-0.5-16.7-4.3-116.6-58.6-222.2-120.7-105.5-62.1-226.7-132-269.3-155.3-42.6-23.4-118.3-65.3-168.3-93.2-50-27.9-101-58.5-113.3-68-12.3-9.5-29.8-32.5-55.2-84.7v-444.3c-0.1-382.8 1.3-447.9 10.1-469.6 5.7-13.9 21.7-36 35.6-49.2 13.8-13.1 66.1-47.3 207-128.2l1.5-36.7c0.9-20.2 5.1-59.4 9.3-87.2 4.2-27.7 13.5-67.1 20.5-87.5 7.1-20.4 20.3-48.4 29.5-62.3 10-15.2 21.9-25.2 30.1-25.2 9.6 0 25.9 19.3 58 69 24.5 37.9 51 74.2 58.9 80.6 7.9 6.4 17.4 11.8 21.1 12 3.7 0.2 70.3-36.5 148.1-81.6 77.7-45 153.5-87.6 168.3-94.6 19.8-9.4 38.5-12.3 70.7-10.8zm-730 543.8c-10.3 9.2-11.1 44.6-9.2 430.1l2 420.1c164.5 95 324.3 188.5 461.3 269 136.9 80.6 255.8 146.4 264.1 146.4 8.3-0.1 165.1-86.9 348.4-193 183.3-106.1 344.6-199.9 358.5-208.6l25.3-15.7-3.4-849.1c-553.1-319.2-718.2-412.8-723.7-413.9-5.6-1.1-168.1 89.5-361.1 201.3-193 111.8-356 207.8-362.2 213.4z"/>
		<path id="Lambda" class="s0" d="m1038.9 762.7l4.3 9.2c24.2 51.8 203.9 459.5 211.6 476.8 7.8 20.6 23 37.4 42.7 47 19.7 9.7 42.4 11.4 63.3 5 25.4-7.9 52.4 6.3 60.3 31.7 7.8 25.4-6.4 52.4-31.8 60.3-43.4 13.4-90.3 10.2-131.5-9.1-41.1-19.4-73.6-53.4-90.9-95.4-1.4-2.9-78.1-176.7-139.1-314.4l-228 402.7c-13.5 22.2-42.2 29.6-64.8 16.9-22.6-12.8-31-41.2-18.9-64.2l262.6-464.9c-11.2-24.7-19.4-43.1-23.3-51.4l-4.6-9.8c-27.9-61-55-107.6-128.1-107.6-26.6 0-48.2-21.5-48.2-48.1 0-26.6 21.6-48.1 48.2-48.1 140.8 0 191.4 110.7 216.2 163.4z"/>
	</g>
</svg>