<?xml version="1.0" standalone="no"?>
<!DOCTYPE svg PUBLIC "-//W3C//DTD SVG 20010904//EN"
 "http://www.w3.org/TR/2001/REC-SVG-20010904/DTD/svg10.dtd">
<svg version="1.0" xmlns="http://www.w3.org/2000/svg"
 width="512.000000pt" height="512.000000pt" viewBox="0 0 512.000000 512.000000"
 preserveAspectRatio="xMidYMid meet">
<metadata>
Created by potrace 1.14, written by Peter Selinger 2001-2017
</metadata>
<g transform="translate(0.000000,512.000000) scale(0.100000,-0.100000)"
fill="#000000" stroke="none">
<path d="M2475 5043 c-16 -2 -37 -7 -45 -10 -8 -3 -17 -7 -20 -7 -3 -1 -41
-21 -85 -45 -114 -63 -132 -73 -278 -158 -180 -104 -349 -198 -410 -230 -49
-24 -52 -25 -82 -9 -16 9 -41 33 -55 53 -14 20 -30 41 -36 47 -6 6 -45 63 -87
126 -86 130 -120 170 -145 170 -58 0 -164 -204 -187 -361 -4 -24 -8 -46 -10
-49 -2 -3 -6 -34 -10 -70 -4 -36 -9 -74 -11 -85 -2 -11 -7 -58 -10 -105 -3
-52 -11 -91 -19 -99 -8 -8 -43 -31 -79 -50 -36 -20 -113 -65 -172 -101 -60
-36 -119 -72 -133 -80 -58 -34 -126 -85 -152 -114 -39 -42 -78 -123 -85 -176
-4 -25 -8 -544 -9 -1154 l-3 -1110 25 -50 c43 -85 93 -154 131 -179 45 -31
221 -137 227 -137 2 0 30 -15 62 -34 60 -35 145 -82 271 -151 40 -22 155 -86
254 -143 100 -56 185 -102 190 -102 4 0 8 -4 8 -10 0 -5 5 -10 10 -10 6 0 55
-26 108 -58 53 -32 104 -61 112 -65 8 -4 27 -15 42 -25 15 -9 97 -57 183 -107
86 -49 170 -98 187 -108 38 -22 166 -91 233 -125 102 -51 175 -58 270 -27 43
15 280 133 310 155 10 7 122 69 180 99 16 9 32 19 35 22 3 3 30 19 60 35 30
16 78 43 107 61 29 18 54 33 57 33 2 0 82 46 178 101 95 56 187 109 203 117
17 9 32 18 35 21 3 4 30 19 60 35 30 16 62 34 70 41 8 7 47 29 85 50 39 21 72
41 75 44 3 3 16 12 29 19 13 8 40 23 60 34 74 42 338 203 391 239 115 78 149
139 158 288 3 53 6 578 6 1166 l1 1070 -51 75 c-46 67 -123 150 -139 150 -3 0
-36 20 -73 44 -37 24 -130 80 -207 125 -77 45 -145 87 -152 94 -6 7 -14 46
-18 87 -3 41 -8 86 -10 100 -2 14 -6 48 -10 75 -13 103 -16 120 -41 218 -36
141 -97 251 -158 284 -25 14 -45 -6 -136 -135 -119 -168 -184 -250 -207 -261
-25 -11 -63 -1 -123 32 -83 46 -200 114 -267 154 -40 24 -77 43 -82 43 -5 0
-11 3 -13 8 -1 4 -19 16 -38 26 -19 11 -93 52 -165 93 -71 40 -152 80 -178 89
-47 16 -162 24 -222 17z m160 -368 c33 -19 85 -48 115 -64 30 -16 69 -38 86
-48 17 -10 101 -58 185 -106 85 -49 161 -92 169 -97 83 -50 153 -90 156 -90 2
0 27 -14 56 -31 64 -38 605 -350 813 -468 83 -48 160 -93 173 -103 l23 -16 4
-1085 4 -1084 -47 -30 c-42 -27 -75 -47 -173 -103 -14 -8 -88 -51 -163 -95
-75 -44 -149 -86 -164 -94 -15 -8 -45 -26 -67 -40 -22 -14 -56 -34 -75 -44
-40 -22 -198 -113 -285 -165 -33 -20 -89 -52 -125 -72 -36 -20 -82 -46 -102
-58 -152 -88 -428 -241 -548 -305 l-125 -66 -90 47 c-130 69 -228 123 -241
133 -6 5 -42 25 -79 45 -38 20 -92 51 -121 70 -29 19 -55 34 -58 34 -3 0 -45
24 -93 53 -94 57 -252 150 -318 187 -22 12 -52 31 -67 41 -14 11 -29 19 -31
19 -6 0 -115 64 -330 192 -54 32 -100 58 -103 58 -2 0 -23 12 -47 27 -23 15
-63 39 -88 53 -26 14 -80 45 -120 69 l-74 43 0 1057 c0 581 4 1068 8 1083 5
14 25 38 45 51 40 27 374 224 747 440 72 41 154 90 184 109 30 18 59 35 65 37
10 4 232 130 266 151 35 22 187 106 205 113 11 4 22 11 25 16 3 4 25 17 50 30
43 22 82 43 200 110 30 17 64 30 75 30 11 0 47 -15 80 -34z"/>
<path d="M2075 3581 c-53 -16 -95 -74 -90 -121 2 -14 4 -31 4 -38 1 -7 14 -26
30 -43 25 -26 41 -32 113 -42 143 -21 203 -72 286 -242 74 -150 86 -184 74
-208 -14 -28 -78 -142 -102 -182 -9 -16 -29 -50 -42 -75 -26 -46 -114 -201
-221 -390 -32 -58 -69 -123 -82 -145 -12 -22 -33 -60 -47 -85 -185 -322 -194
-344 -166 -405 15 -34 71 -67 113 -67 56 0 88 33 164 168 39 69 71 130 71 134
0 5 4 10 8 12 5 2 27 37 49 78 22 41 69 125 103 185 35 61 68 119 74 130 64
116 209 366 215 369 4 3 20 -25 36 -62 16 -37 38 -89 51 -117 12 -27 31 -70
42 -95 145 -332 250 -562 267 -590 56 -88 131 -146 250 -191 81 -31 218 -31
287 -1 91 40 107 143 34 211 -21 20 -34 24 -78 21 -134 -6 -166 -3 -211 23
-24 15 -53 39 -63 54 -20 30 -81 160 -146 313 -22 52 -53 122 -68 155 -15 33
-41 92 -58 130 -16 39 -40 93 -53 120 -13 28 -24 52 -24 55 -2 6 -25 59 -62
140 -38 85 -38 84 -123 274 -118 264 -198 380 -310 451 -85 54 -264 96 -325
76z"/>
</g>
</svg>
